<svg width="171" height="175" viewBox="0 0 171 175" fill="none" xmlns="http://www.w3.org/2000/svg">
<g clip-path="url(#clip0_2_3)">
<path d="M140.565 64.8439C147.886 92.7502 122.691 121.627 95.5369 114.39C94.1541 114.087 92.7241 113.453 91.4788 112.939C99.2939 93.724 99.264 69.9821 87.1176 59.942C76.126 50.9569 63.6796 62.341 64.4134 75.7327C65.3396 91.6524 72.0211 106.829 83.9787 115.545C78.1205 127.331 68.5225 136.373 55.2557 136.11C32.9144 135.623 20.1598 108.369 25.4333 86.5919C26.117 84.3362 22.9821 83.4885 22.2984 85.7442C12.4401 114.134 34.1001 146.307 62.6882 141.268C73.7829 139.21 82.8739 130.137 88.9167 118.472C102.434 125.204 119.693 120.568 132.233 109.847C146.703 97.3825 149.454 79.0617 144.843 63.1358C144.144 60.5766 140.051 62.406 140.565 64.8439ZM72.4662 87.6018C70.6045 81.5805 68.8764 74.1452 70.9275 67.3781C72.8409 60.8217 80.7256 63.2716 83.817 64.9922C87.6472 67.1951 89.0455 72.3129 89.8427 76.7376C91.8534 86.1588 90.6508 98.8855 86.5405 110.012C79.7523 104.675 75.3492 96.0922 72.4662 87.6018Z" fill="#E09018"/>
<path d="M141.434 48.5965C137.584 54.488 133.965 60.8313 131.545 67.3571C130.586 70.0333 134.043 70.7916 135.187 68.2354C137.474 63.1236 140.821 58.4048 144.031 53.8964C146.293 55.6753 148.741 57.575 150.866 59.5645C152.437 61.192 154.244 64.4749 156.916 64.419C158.252 64.3913 158.939 63.3393 159.257 62.0457C159.984 58.9174 156.107 56.3834 154.351 54.6353C151.44 51.8318 148.439 49.5706 145.115 47.3984C144.008 46.6748 142.259 47.334 141.434 48.5965Z" fill="#E09018"/>
</g>
<defs>
<clipPath id="clip0_2_3">
<rect width="132.687" height="116.431" fill="white" transform="translate(0 111.071) rotate(-56.8338)"/>
</clipPath>
</defs>
</svg>
