<svg width="38" height="53" viewBox="0 0 38 53" fill="none" xmlns="http://www.w3.org/2000/svg">
<g clip-path="url(#clip0_2_36)">
<path d="M0.141744 20.7208C11.045 19.3086 22.003 17.8374 32.9587 16.833C37.5914 17.0828 37.236 26.0781 36.8058 29.5075C36.1247 34.9956 34.4984 40.4812 35.1412 46.0704C35.071 47.7534 37.2696 50.9314 34.3369 50.6673C23.5075 51.8761 12.6117 52.334 1.7229 52.0377C0.380514 52.2873 1.28617 51.0812 1.3786 50.2369C2.58145 45.5742 3.69162 40.8362 3.97501 36.0111C4.29266 30.5625 3.50703 24.8674 0.73936 20.1439C3.27239 24.7221 3.99215 30.2126 3.62998 35.5064C3.23835 41.3163 1.56726 47.0917 0 52.703C9.55772 53.2031 19.1366 53.0739 28.6784 52.3163C31.8248 51.527 38.8999 53.3634 36.5439 47.7977C34.9616 40.8137 37.759 33.8279 37.9958 26.8407C38.0597 22.8107 37.4536 15.1759 31.9961 16.0822C21.572 17.3625 9.52674 19.1335 0.141744 20.7208Z" fill="black"/>
<path d="M29.9199 28.5266C24.6572 27.1345 18.9785 27.9979 14.2054 30.6167C19.1705 29.2816 24.8436 28.6916 29.9199 28.5266Z" fill="black"/>
<path d="M29.5942 35.7653C23.2403 35.7653 16.7947 36.9051 10.7626 38.7195C16.7431 38.2474 24.7457 37.0622 29.5942 35.7653Z" fill="black"/>
<path d="M29.9007 44.6547C23.5193 43.9148 16.8748 44.6287 10.7505 46.3395C16.3969 45.9625 24.5008 45.3951 29.9007 44.6547Z" fill="black"/>
<path d="M17.7104 16.085C19.1001 16.2619 23.8021 13.9378 22.6763 16.1781C20.5735 23.9402 21.0502 19.8377 17.3723 16.1794C18.8482 18.4358 20.1025 21.0384 21.1453 23.5769C23.355 16.9058 27.5506 11.3265 17.7104 16.085Z" fill="black"/>
<path d="M13.8827 14.914C13.5584 14.9982 13.2161 14.9698 12.909 14.833C12.602 14.6963 12.3472 14.459 12.1843 14.1577C12.0213 13.8565 11.9593 13.5083 12.0078 13.167C12.0563 12.8258 12.2127 12.5106 12.4526 12.2702C12.9422 11.7798 13.7412 11.6331 14.0738 11.0185C14.2749 10.6467 14.2497 10.1918 14.19 9.77051C13.9947 8.39166 13.495 7.07898 13.2075 5.71739C12.9201 4.3558 12.8643 2.86224 13.5112 1.63879C14.1581 0.41535 15.6863 -0.38445 16.9176 0.189737C18.1094 0.745483 18.5431 2.23098 18.8445 3.5434L19.626 6.94582C19.662 7.16675 19.7405 7.37801 19.8569 7.56716C20.3288 8.22961 21.3448 7.86746 22.1163 8.07444C23.1605 8.35462 23.6031 9.76049 23.2304 10.8046C22.8577 11.8488 21.9256 12.5656 20.9804 13.1023C18.6931 14.4011 16.0627 14.9995 13.4515 15.005" fill="#FFDDAA"/>
<path d="M15.9967 16.0992C20.2673 17.4962 32.1017 10.7539 23.3394 8.53922C21.453 5.99394 21.4227 -3.27373 15.9674 2.10913C13.3326 5.42389 18.2333 9.76205 16.1199 12.7176C14.4024 13.2244 14.2836 16.0107 16.3405 15.6412C12.308 14.7458 18.0552 12.8948 17.2326 10.895C16.8383 7.96795 14.2442 2.52774 18.5676 1.65384C21.4904 2.24067 20.7978 6.62021 21.9324 8.82233C31.0754 11.3189 20.3909 16.2074 15.9967 16.0992Z" fill="black"/>
<path d="M21.0444 24.364C20.9758 23.9254 21.7954 23.5395 21.392 23.3983C21.3452 24.0955 20.2888 23.8656 20.857 24.4174C20.9177 24.328 21.0034 24.2597 21.1026 24.2216C21.2018 24.1836 21.3099 24.1775 21.4126 24.2042C21.1981 23.9932 21.2155 24.1371 21.0179 24.2416C21.1798 24.5703 21.1534 24.6668 21.5897 24.4937C21.7096 24.5307 21.4752 24.6398 21.6151 24.5288C21.5422 24.5124 21.2603 24.0741 21.2798 24.3315C21.1612 24.2567 21.1496 24.1686 21.0646 24.074C21.1146 24.1649 20.9787 24.331 21.0979 24.2738C21.7992 25.0153 21.1182 23.5844 21.1669 24.0227C21.35 24.045 21.5821 24.0373 21.4223 23.8449C20.8911 23.2004 21.1002 23.8598 20.5308 23.8199C20.8436 24.3731 20.5783 23.8398 20.8141 23.5437C21.0722 22.9703 22.1612 22.9942 22.2972 23.6246C22.2459 24.5262 21.0897 25.266 20.3187 24.8105C20.0706 23.7265 20.6815 22.746 20.0741 24.4305C20.1603 25.9394 22.5236 25.0786 22.7823 23.9844C23.3348 21.7466 19.4298 21.9991 19.788 24.2116C20.2952 25.6636 22.5401 24.3116 22.0086 22.9321C20.5139 22.2135 19.6142 25.0269 21.3682 24.8943C23.6815 23.626 20.2015 22.4514 20.4344 24.5663C21.614 26.1716 22.639 22.8666 20.8875 23.8202C20.6862 23.9147 20.7029 24.6663 20.7802 24.4801C20.7574 24.3363 20.8349 24.1703 20.8761 24.0355C21.2408 23.8058 21.3633 24.3908 21.8166 23.6604C22.7442 23.8909 20.5409 22.8838 20.4608 24.8678C22.9779 25.5807 21.4355 21.747 20.2668 24.6108C21.0646 24.5933 21.7327 23.9768 21.6236 23.1364C21.2656 23.4407 20.9987 23.9259 21.0444 24.364Z" fill="black"/>
</g>
<defs>
<clipPath id="clip0_2_36">
<rect width="38" height="53" fill="white"/>
</clipPath>
</defs>
</svg>
