<svg width="23" height="23" viewBox="0 0 23 23" fill="none" xmlns="http://www.w3.org/2000/svg">
<path d="M9.07466 16.118C8.98778 16.118 8.90027 16.0881 8.82886 16.0273L6.37171 13.935C6.28696 13.8628 6.23822 13.7572 6.23822 13.6458C6.23822 13.5345 6.28717 13.429 6.37171 13.3567L8.82886 11.2645C8.98842 11.1285 9.22807 11.1477 9.36411 11.3073C9.49993 11.4671 9.48086 11.7067 9.32109 11.8425L7.20362 13.6458L9.32109 15.449C9.48086 15.585 9.49993 15.8247 9.36411 15.9842C9.28889 16.0726 9.18209 16.118 9.07466 16.118Z" fill="black"/>
<path d="M13.9253 16.118C13.8179 16.118 13.7111 16.0726 13.6361 15.9842C13.5001 15.8247 13.5194 15.585 13.6789 15.449L15.7964 13.6458L13.6789 11.8425C13.5194 11.7067 13.5001 11.4671 13.6361 11.3073C13.7719 11.1477 14.0118 11.1285 14.1711 11.2645L16.6283 13.3567C16.713 13.429 16.7618 13.5345 16.7618 13.6458C16.7618 13.7572 16.713 13.8628 16.6283 13.935L14.1711 16.0273C14.0997 16.0881 14.0122 16.118 13.9253 16.118V16.118Z" fill="black"/>
<path d="M10.6302 17.6874C10.6041 17.6874 10.5778 17.6846 10.5513 17.6791C10.3462 17.6359 10.2148 17.4344 10.2581 17.2292L11.7894 9.95847C11.8327 9.75336 12.034 9.62198 12.2393 9.66521C12.4444 9.70844 12.5758 9.90974 12.5326 10.1151L11.0012 17.3858C10.9635 17.5647 10.8058 17.6874 10.6302 17.6874V17.6874Z" fill="black"/>
<path d="M20.4505 21.6486H2.54953C1.14381 21.6486 0 20.505 0 19.0991V3.90573C0 2.50001 1.14381 1.3562 2.54953 1.3562H20.4505C21.8562 1.3562 23 2.50001 23 3.90573V19.0991C23 20.505 21.8562 21.6486 20.4505 21.6486ZM2.54953 2.11564C1.56252 2.11564 0.759434 2.91872 0.759434 3.90573V19.0991C0.759434 20.0861 1.56252 20.8892 2.54953 20.8892H20.4505C21.4375 20.8892 22.2406 20.0861 22.2406 19.0991V3.90573C22.2406 2.91872 21.4375 2.11564 20.4505 2.11564H2.54953Z" fill="black"/>
<path d="M22.6203 7.43644H0.379717C0.16994 7.43644 0 7.2665 0 7.05672C0 6.84715 0.16994 6.677 0.379717 6.677H22.6203C22.8301 6.677 23 6.84715 23 7.05672C23 7.2665 22.8301 7.43644 22.6203 7.43644Z" fill="black"/>
<path d="M6.48782 5.61938C5.82544 5.61938 5.28616 5.08011 5.28616 4.41772C5.28616 3.75513 5.82544 3.21606 6.48782 3.21606C7.15042 3.21606 7.68948 3.75513 7.68948 4.41772C7.68948 5.08011 7.15042 5.61938 6.48782 5.61938ZM6.48782 3.9755C6.24414 3.9755 6.0456 4.17383 6.0456 4.41772C6.0456 4.66162 6.24414 4.85995 6.48782 4.85995C6.73172 4.85995 6.93005 4.66162 6.93005 4.41772C6.93005 4.17383 6.73172 3.9755 6.48782 3.9755Z" fill="black"/>
<path d="M2.79575 5.60791C2.13315 5.60791 1.59409 5.06885 1.59409 4.40625C1.59409 3.74365 2.13315 3.20459 2.79575 3.20459C3.45834 3.20459 3.9974 3.74365 3.9974 4.40625C3.9974 5.06885 3.45834 5.60791 2.79575 5.60791ZM2.79575 3.96402C2.55207 3.96402 2.35352 4.16257 2.35352 4.40625C2.35352 4.65014 2.55207 4.84848 2.79575 4.84848C3.03964 4.84848 3.23797 4.65014 3.23797 4.40625C3.23797 4.16257 3.03964 3.96402 2.79575 3.96402Z" fill="black"/>
<path d="M10.1799 5.63089C9.51752 5.63089 8.97845 5.09183 8.97845 4.42923C8.97845 3.76685 9.51752 3.22778 10.1799 3.22778C10.8425 3.22778 11.3816 3.76685 11.3816 4.42923C11.3816 5.09183 10.8425 5.63089 10.1799 5.63089ZM10.1799 3.98701C9.93622 3.98701 9.73789 4.18534 9.73789 4.42923C9.73789 4.67312 9.93622 4.87146 10.1799 4.87146C10.4238 4.87146 10.6221 4.67312 10.6221 4.42923C10.6221 4.18534 10.4238 3.98701 10.1799 3.98701Z" fill="black"/>
</svg>
